<?xml version="1.0" standalone="no"?><!DOCTYPE svg PUBLIC "-//W3C//DTD SVG 1.1//EN" "http://www.w3.org/Graphics/SVG/1.1/DTD/svg11.dtd"><svg t="1683863603874" class="icon" viewBox="0 0 1024 1024" version="1.1" xmlns="http://www.w3.org/2000/svg" p-id="3009" xmlns:xlink="http://www.w3.org/1999/xlink" width="200" height="200"><path d="M382.72 1007.5392c3.6864-20.7872 7.1168-39.3984 10.1632-55.9616l0.1792-0.896c17.9968-97.8688 24.064-130.9696-3.1488-139.6224-50.8928-16.64-102.784-37.9904-131.84-100.0704a192.4352 192.4352 0 0 1-12.416-93.8496l13.6704-115.968a191.7696 191.7696 0 0 1 9.1648-39.2192 75.8016 75.8016 0 0 1-14.8992-10.1632l-0.0256-0.0512c-2.816-2.4576-71.2192-62.1568-69.2224-160.3584 0.4864-18.1248 9.1648-24.32 16.384-26.5472 27.5456-7.936 81.92 29.7728 118.4256 63.5392 1.7408-0.256 3.712-0.256 5.4528-0.256 0-4.9408 0.512-9.9072 1.5104-14.6432a75.8272 75.8272 0 0 1 22.0928-39.2192 76.1088 76.1088 0 0 1 52.1216-20.096 45.9264 45.9264 0 0 0-16.64-17.152 3.328 3.328 0 0 1-1.4848-1.7408c-0.256-0.7424-0.256-1.4848-0.256-2.2272 0.256-0.7424 0.512-1.4848 1.024-1.9712 0.4864-0.512 1.2288-0.768 1.9712-1.024a66.6624 66.6624 0 0 1 33.536 0.512c10.9056 2.9952 21.0944 8.704 29.2864 16.384a82.8416 82.8416 0 0 1 21.0944-28.0576c10.4448-8.704 22.6048-14.8992 35.7632-18.6112 0.7424-0.256 1.2288-0.256 1.7408-0.256 0.512 0 0.9728 0.256 1.4848 0.512 0.512 0.256 0.9984 0.4864 1.2288 0.9728l0.768 1.5104c0.256 0.7424 0.256 1.4848 0 2.2272a5.4016 5.4016 0 0 1-1.2544 1.9712 46.9248 46.9248 0 0 0-12.16 23.6032 96.8448 96.8448 0 0 0-1.2544 28.0576c0.256 3.2256 0.512 6.1952 1.024 9.4208 8.4224-5.1968 18.3552-8.192 28.288-8.192s19.8656 2.7392 28.544 7.68c1.2544-3.9424 1.9968-8.192 2.4832-12.1344 0.9984-5.7088 0.9984-11.6736 0.512-17.6384a82.5088 82.5088 0 0 0-3.2512-17.3824c-0.4864-0.9984-0.256-2.2272 0.256-3.2256a3.9424 3.9424 0 0 1 2.4832-1.9968c0.768-0.256 1.7408-0.256 2.4832 0 0.768 0.256 1.4848 0.512 1.9968 1.2544 4.224 4.7104 7.68 9.9328 10.4192 15.6416 1.7408 3.4816 3.4816 7.1936 4.7104 10.9312 4.48-4.9664 9.4464-9.216 15.1552-12.416 3.712-2.2272 7.68-3.968 11.6736-5.4784 4.224-1.4848 8.448-2.2272 12.9024-2.4832 0.768 0 1.2544 0 1.7408 0.256 0.3328 0 0.6656 0.2304 0.9984 0.4352a4.5312 4.5312 0 0 0 0.512 0.3072c0.4864 0.256 0.7168 0.768 0.9728 1.2544 0.256 0.512 0.512 0.9984 0.512 1.4848 0 0.7424 0 1.4848-0.256 1.9968-0.256 0.4864-0.768 0.9728-1.2544 1.4848a57.1392 57.1392 0 0 0-18.8672 32.768c-0.7424 3.712-1.2288 7.424-1.4848 11.1616a76.5696 76.5696 0 0 1 43.4432-4.9664 72.32 72.32 0 0 1 40.4736 22.8608 244.1472 244.1472 0 0 0 3.2256 3.968c34.0224-32.768 79.6928-65.792 105.0368-59.8528 7.424 1.7408 16.384 7.4496 17.8688 25.6 6.9632 95.8208-55.1168 158.3872-60.5696 163.584a179.712 179.712 0 0 1 18.6112 48.1792l26.3168 114.2272a191.7184 191.7184 0 0 1-1.9968 93.3632v0.256l-0.256 0.9728c0 0.256 0 0.512-0.2304 0.768-14.4128 41.9328-39.9616 68.5056-68.7872 86.8864-4.224 2.7136-8.448 5.1968-12.6464 7.424a330.24 330.24 0 0 1-39.4752 18.1504c-26.5728 9.1648-32.0256 33.9968-31.7952 53.12 0.128 4.224 0.3072 8.448 0.512 12.672l0.512 12.672c1.7408 43.6992 3.5584 88.1152 8.704 132.224C864.1024 946.944 1024 748.16 1024 512 1024 229.2224 794.7776 0 512 0S0 229.2224 0 512c0 238.1056 162.56 438.272 382.72 495.5392z" fill="#2c2c2c" p-id="3010"></path></svg>